<svg width="32" height="32" viewBox="0 0 32 32" fill="none" xmlns="http://www.w3.org/2000/svg">
<path d="M15.996 23.3364C15.6292 23.3364 15.329 23.6365 15.333 24.0033C15.333 24.3701 15.6332 24.6703 16 24.6703C16.3668 24.6703 16.6669 24.3701 16.6669 24.0033C16.6669 23.6365 16.3668 23.3364 15.996 23.3364" stroke="white" stroke-opacity="0.7" stroke-width="1.5" stroke-linecap="round" stroke-linejoin="round"/>
<path d="M15.996 15.3331C15.6292 15.3331 15.329 15.6332 15.333 16C15.333 16.3668 15.6332 16.667 16 16.667C16.3668 16.667 16.6669 16.3668 16.6669 16C16.6669 15.6332 16.3668 15.3331 15.996 15.3331" stroke="white" stroke-opacity="0.7" stroke-width="1.5" stroke-linecap="round" stroke-linejoin="round"/>
<path d="M15.996 7.32971C15.6292 7.32971 15.329 7.62984 15.333 7.99666C15.333 8.36348 15.6332 8.6636 16 8.6636C16.3668 8.6636 16.6669 8.36348 16.6669 7.99666C16.6669 7.62984 16.3668 7.32971 15.996 7.32971" stroke="white" stroke-opacity="0.7" stroke-width="1.5" stroke-linecap="round" stroke-linejoin="round"/>
</svg>
