<svg width="24" height="24" viewBox="0 0 24 24" fill="none" xmlns="http://www.w3.org/2000/svg">
<path fill-rule="evenodd" clip-rule="evenodd" d="M10.941 9.05795L14.823 11.3539C15.314 11.6439 15.314 12.3549 14.823 12.6449L10.941 14.9409C10.441 15.2369 9.80902 14.8759 9.80902 14.2949L9.80902 9.70395C9.80902 9.12295 10.441 8.76195 10.941 9.05795V9.05795Z" stroke="white" stroke-opacity="0.7" stroke-width="1.5" stroke-linecap="round" stroke-linejoin="round"/>
<path fill-rule="evenodd" clip-rule="evenodd" d="M18 21L6 21C4.343 21 3 19.657 3 18L3 6C3 4.343 4.343 3 6 3L18 3C19.657 3 21 4.343 21 6L21 18C21 19.657 19.657 21 18 21Z" stroke="white" stroke-opacity="0.7" stroke-width="1.5" stroke-linecap="round" stroke-linejoin="round"/>
</svg>
