<svg width="375" height="56" viewBox="0 0 375 56" fill="none" xmlns="http://www.w3.org/2000/svg">
<rect width="375" height="56" fill="black"/>
<path d="M51.057 32.0309L52.401 34.9149H53.759L49.195 25.1149H48.495L44.351 34.9149H44.995L46.227 32.0309H51.057ZM50.763 31.4009H46.493L48.509 26.6829H48.565L50.763 31.4009ZM56.1449 34.9149V25.1149H59.3649C60.1396 25.1149 60.8489 25.2409 61.4929 25.4929C62.1369 25.7355 62.6876 26.0762 63.1449 26.5149C63.6116 26.9442 63.9709 27.4575 64.2229 28.0549C64.4842 28.6522 64.6149 29.2962 64.6149 29.9869C64.6149 30.7055 64.4796 31.3682 64.2089 31.9749C63.9476 32.5722 63.5836 33.0902 63.1169 33.5289C62.6596 33.9675 62.1229 34.3082 61.5069 34.5509C60.8909 34.7935 60.2329 34.9149 59.5329 34.9149H56.1449ZM57.4189 34.2989H58.9589C59.7242 34.2989 60.3729 34.1729 60.9049 33.9209C61.4462 33.6595 61.8896 33.3235 62.2349 32.9129C62.5802 32.5022 62.8322 32.0449 62.9909 31.5409C63.1496 31.0275 63.2289 30.5189 63.2289 30.0149C63.2289 29.4549 63.1356 28.9182 62.9489 28.4049C62.7622 27.8822 62.4869 27.4249 62.1229 27.0329C61.7682 26.6315 61.3249 26.3142 60.7929 26.0809C60.2609 25.8475 59.6496 25.7309 58.9589 25.7309H57.4189V34.2989ZM66.99 34.9149V25.1149H70.21C70.9846 25.1149 71.694 25.2409 72.338 25.4929C72.982 25.7355 73.5326 26.0762 73.99 26.5149C74.4566 26.9442 74.816 27.4575 75.068 28.0549C75.3293 28.6522 75.46 29.2962 75.46 29.9869C75.46 30.7055 75.3246 31.3682 75.054 31.9749C74.7926 32.5722 74.4286 33.0902 73.962 33.5289C73.5046 33.9675 72.968 34.3082 72.352 34.5509C71.736 34.7935 71.078 34.9149 70.378 34.9149H66.99ZM68.264 34.2989H69.804C70.5693 34.2989 71.218 34.1729 71.75 33.9209C72.2913 33.6595 72.7346 33.3235 73.08 32.9129C73.4253 32.5022 73.6773 32.0449 73.836 31.5409C73.9946 31.0275 74.074 30.5189 74.074 30.0149C74.074 29.4549 73.9806 28.9182 73.794 28.4049C73.6073 27.8822 73.332 27.4249 72.968 27.0329C72.6133 26.6315 72.17 26.3142 71.638 26.0809C71.106 25.8475 70.4946 25.7309 69.804 25.7309H68.264V34.2989ZM86.3556 34.9149V25.8849H90.1076V25.1149H81.3296V25.8849H85.0816V34.9149H86.3556ZM90.2431 30.0149C90.2431 30.5375 90.3411 31.0975 90.5371 31.6949C90.7424 32.2829 91.0598 32.8289 91.4891 33.3329C91.9184 33.8369 92.4644 34.2569 93.1271 34.5929C93.7898 34.9195 94.5831 35.0829 95.5071 35.0829C96.1324 35.0829 96.6971 35.0082 97.2011 34.8589C97.7144 34.7002 98.1718 34.4902 98.5731 34.2289C98.9838 33.9675 99.3384 33.6689 99.6371 33.3329C99.9358 32.9875 100.178 32.6282 100.365 32.2549C100.561 31.8722 100.706 31.4895 100.799 31.1069C100.902 30.7242 100.953 30.3602 100.953 30.0149C100.953 29.4922 100.846 28.9369 100.631 28.3489C100.416 27.7515 100.085 27.2009 99.6371 26.6969C99.1891 26.1929 98.6198 25.7775 97.9291 25.4509C97.2478 25.1149 96.4404 24.9469 95.5071 24.9469C94.5831 24.9469 93.7898 25.1102 93.1271 25.4369C92.4644 25.7635 91.9184 26.1789 91.4891 26.6829C91.0598 27.1775 90.7424 27.7235 90.5371 28.3209C90.3411 28.9182 90.2431 29.4829 90.2431 30.0149ZM91.6151 30.0149C91.6151 29.3615 91.7131 28.7642 91.9091 28.2229C92.1144 27.6722 92.3898 27.2009 92.7351 26.8089C93.0898 26.4169 93.5051 26.1135 93.9811 25.8989C94.4571 25.6749 94.9751 25.5629 95.5351 25.5629C96.0858 25.5629 96.6038 25.6749 97.0891 25.8989C97.5838 26.1135 98.0131 26.4169 98.3771 26.8089C98.7504 27.2009 99.0444 27.6722 99.2591 28.2229C99.4738 28.7642 99.5811 29.3615 99.5811 30.0149C99.5811 30.6682 99.4738 31.2702 99.2591 31.8209C99.0444 32.3622 98.7504 32.8289 98.3771 33.2209C98.0131 33.6129 97.5838 33.9209 97.0891 34.1449C96.6038 34.3595 96.0858 34.4669 95.5351 34.4669C94.9751 34.4669 94.4571 34.3595 93.9811 34.1449C93.5051 33.9209 93.0898 33.6129 92.7351 33.2209C92.3898 32.8289 92.1144 32.3622 91.9091 31.8209C91.7131 31.2702 91.6151 30.6682 91.6151 30.0149ZM108.511 34.9149H112.025C112.65 34.9149 113.178 34.8355 113.607 34.6769C114.036 34.5089 114.382 34.2942 114.643 34.0329C114.904 33.7715 115.091 33.4775 115.203 33.1509C115.324 32.8149 115.385 32.4789 115.385 32.1429C115.385 31.6109 115.268 31.1862 115.035 30.8689C114.811 30.5515 114.54 30.3089 114.223 30.1409C113.906 29.9729 113.579 29.8609 113.243 29.8049C112.907 29.7489 112.636 29.7162 112.431 29.7069V29.6509C112.758 29.6509 113.066 29.5902 113.355 29.4689C113.644 29.3382 113.896 29.1749 114.111 28.9789C114.335 28.7735 114.512 28.5402 114.643 28.2789C114.774 28.0082 114.839 27.7235 114.839 27.4249C114.839 27.1635 114.783 26.8975 114.671 26.6269C114.559 26.3562 114.386 26.1089 114.153 25.8849C113.929 25.6609 113.635 25.4789 113.271 25.3389C112.916 25.1895 112.496 25.1149 112.011 25.1149H108.511V34.9149ZM109.785 34.2989V30.0149H111.325C111.782 30.0149 112.179 30.0755 112.515 30.1969C112.851 30.3182 113.126 30.4815 113.341 30.6869C113.565 30.8922 113.728 31.1302 113.831 31.4009C113.943 31.6715 113.999 31.9562 113.999 32.2549C113.999 32.5815 113.938 32.8709 113.817 33.1229C113.705 33.3749 113.551 33.5895 113.355 33.7669C113.159 33.9442 112.926 34.0795 112.655 34.1729C112.394 34.2569 112.114 34.2989 111.815 34.2989H109.785ZM109.785 29.3989V25.7309H111.493C111.857 25.7309 112.165 25.7822 112.417 25.8849C112.678 25.9875 112.888 26.1229 113.047 26.2909C113.215 26.4589 113.336 26.6502 113.411 26.8649C113.486 27.0795 113.523 27.2942 113.523 27.5089C113.523 27.7795 113.467 28.0315 113.355 28.2649C113.252 28.4982 113.103 28.6989 112.907 28.8669C112.72 29.0349 112.501 29.1655 112.249 29.2589C112.006 29.3522 111.745 29.3989 111.465 29.3989H109.785ZM123.353 32.0309L124.697 34.9149H126.055L121.491 25.1149H120.791L116.647 34.9149H117.291L118.523 32.0309H123.353ZM123.059 31.4009H118.789L120.805 26.6829H120.861L123.059 31.4009ZM127.139 32.4369C127.157 32.8382 127.26 33.2022 127.447 33.5289C127.643 33.8555 127.904 34.1355 128.231 34.3689C128.567 34.5929 128.959 34.7702 129.407 34.9009C129.855 35.0222 130.345 35.0829 130.877 35.0829C131.418 35.0829 131.903 35.0175 132.333 34.8869C132.771 34.7562 133.145 34.5695 133.453 34.3269C133.761 34.0842 133.999 33.7902 134.167 33.4449C134.335 33.0995 134.419 32.7169 134.419 32.2969C134.419 31.7182 134.274 31.2469 133.985 30.8829C133.695 30.5095 133.331 30.2015 132.893 29.9589C132.463 29.7069 131.992 29.4969 131.479 29.3289C130.975 29.1609 130.503 28.9835 130.065 28.7969C129.635 28.6102 129.276 28.3955 128.987 28.1529C128.697 27.9102 128.553 27.5882 128.553 27.1869C128.553 26.9629 128.599 26.7529 128.693 26.5569C128.795 26.3609 128.94 26.1929 129.127 26.0529C129.323 25.9035 129.561 25.7869 129.841 25.7029C130.121 25.6095 130.443 25.5629 130.807 25.5629C131.413 25.5629 131.927 25.6935 132.347 25.9549C132.776 26.2069 133.028 26.6082 133.103 27.1589H134.055C133.999 26.8135 133.873 26.5055 133.677 26.2349C133.481 25.9549 133.233 25.7215 132.935 25.5349C132.636 25.3389 132.295 25.1942 131.913 25.1009C131.539 24.9982 131.147 24.9469 130.737 24.9469C130.307 24.9469 129.897 25.0029 129.505 25.1149C129.122 25.2269 128.781 25.3902 128.483 25.6049C128.193 25.8195 127.96 26.0902 127.783 26.4169C127.615 26.7435 127.531 27.1169 127.531 27.5369C127.531 28.0875 127.671 28.5309 127.951 28.8669C128.231 29.2029 128.581 29.4829 129.001 29.7069C129.43 29.9309 129.892 30.1222 130.387 30.2809C130.881 30.4395 131.339 30.6215 131.759 30.8269C132.188 31.0229 132.543 31.2655 132.823 31.5549C133.103 31.8442 133.243 32.2315 133.243 32.7169C133.243 33.3235 133.019 33.7669 132.571 34.0469C132.132 34.3269 131.544 34.4669 130.807 34.4669C130.219 34.4669 129.747 34.3922 129.393 34.2429C129.038 34.0842 128.767 33.8975 128.581 33.6829C128.394 33.4682 128.268 33.2489 128.203 33.0249C128.137 32.7915 128.1 32.5955 128.091 32.4369H127.139ZM137.191 34.9149H138.465V31.4709L140.047 29.7769L143.771 34.9149H145.227L140.859 28.9089L144.415 25.1149H143.715L138.465 30.6309V25.1149H137.191V34.9149ZM147.462 25.1149V34.9149H153.79V34.1449H148.736V30.0429H153.076V29.3989H148.736V25.8849H153.79V25.1149H147.462ZM159.649 34.9149V25.8849H163.401V25.1149H154.623V25.8849H158.375V34.9149H159.649Z" fill="#FCFCFC"/>
<path d="M26 21.2868V36.2868" stroke="#FCFCFC"/>
<path d="M18.5 28.7868H33.5" stroke="#FCFCFC"/>
<path d="M319.772 21.075C317.409 23.4378 317.409 27.2688 319.772 29.6317L328.937 38.7965L329 38.7335L329.063 38.7966L338.228 29.6318C340.591 27.2689 340.591 23.4379 338.228 21.075C335.865 18.7122 332.034 18.7122 329.671 21.075L329.354 21.3926C329.158 21.5878 328.842 21.5878 328.647 21.3926L328.329 21.075C325.966 18.7121 322.135 18.7121 319.772 21.075Z" stroke="#F9F9F9"/>
</svg>
