<svg width="24" height="24" viewBox="0 0 24 24" fill="none" xmlns="http://www.w3.org/2000/svg">
<path fill-rule="evenodd" clip-rule="evenodd" d="M8 2H15.58C18.8937 2 21.58 4.68629 21.58 8V15.58C21.58 18.8937 18.8937 21.58 15.58 21.58H8C4.68629 21.58 2 18.8937 2 15.58V8C2 4.68629 4.68629 2 8 2ZM15.58 20.08C18.063 20.0745 20.0745 18.063 20.08 15.58V8C20.0745 5.517 18.063 3.5055 15.58 3.5H8C5.517 3.5055 3.5055 5.517 3.5 8V15.58C3.5055 18.063 5.517 20.0745 8 20.08H15.58Z" fill="currentColor"/>
<path d="M11.79 8.04C11.378 8.04539 11.0454 8.37804 11.04 8.79C11.04 9.20586 11.3742 9.54453 11.79 9.55C11.9915 9.5528 12.1854 9.47329 12.327 9.32985C12.4685 9.18641 12.5455 8.99145 12.54 8.79C12.54 8.37579 12.2042 8.04 11.79 8.04Z" fill="currentColor"/>
<path d="M11.79 10.92C11.3758 10.92 11.04 11.2558 11.04 11.67V14.79C11.04 15.2042 11.3758 15.54 11.79 15.54C12.2042 15.54 12.54 15.2042 12.54 14.79V11.69C12.5483 11.4868 12.4726 11.2892 12.3307 11.1436C12.1888 10.9979 11.9933 10.9171 11.79 10.92Z" fill="currentColor"/>
</svg>
