<svg width="46" height="46" viewBox="0 0 46 46" fill="none" xmlns="http://www.w3.org/2000/svg">
<path fill-rule="evenodd" clip-rule="evenodd" d="M41.2275 4.945C40.1518 3.87806 38.6984 3.27881 37.1833 3.2775C35.8709 3.28176 34.5994 3.73491 33.58 4.56166L15.6208 19.1667L15.3333 19.4542C12.8302 21.9358 12.275 25.7759 13.9725 28.865C13.2761 28.6525 12.5538 28.5364 11.8258 28.52C7.59166 28.52 4.15918 31.9525 4.15918 36.1867V40.9783C4.15918 42.5661 5.44636 43.8533 7.03418 43.8533H11.8258C14.4873 43.8387 16.9508 42.4448 18.334 40.1709C19.7171 37.897 19.8219 35.0684 18.6108 32.6983C19.3769 32.957 20.179 33.0928 20.9875 33.1008C23.1103 33.1151 25.149 32.2719 26.6417 30.7625L26.8333 30.5517L41.5342 12.5925C43.3898 10.3356 43.2578 7.04602 41.2275 4.945ZM11.9025 40.9783H7.11085V36.1867C7.11085 33.5403 9.25615 31.395 11.9025 31.395C14.5489 31.395 16.6942 33.5403 16.6942 36.1867C16.6942 38.833 14.5489 40.9783 11.9025 40.9783ZM24.6867 28.75L39.3875 10.7717C40.2886 9.64292 40.1978 8.01732 39.1765 6.99602C38.1552 5.97473 36.5296 5.88387 35.4008 6.785L17.4417 21.4858C15.4357 23.4865 15.4314 26.7345 17.4321 28.7404C19.4327 30.7464 22.6807 30.7506 24.6867 28.75Z" fill="currentColor"/>
<path d="M25.3 18.8408L19.55 24.5908C18.9895 25.1521 18.9895 26.0613 19.55 26.6225C20.1112 27.183 21.0204 27.183 21.5817 26.6225L27.3317 20.8725C27.7163 20.5141 27.8746 19.9744 27.7445 19.4651C27.6144 18.9558 27.2167 18.5581 26.7074 18.428C26.1981 18.2979 25.6584 18.4562 25.3 18.8408Z" fill="currentColor"/>
</svg>
